Coordinates
version=1
nRows=22
nColumns=24
inDegrees=yes

Units are S.I. units (second, meters, Newtons, ...)
Angles are in degrees.

endheader
time	pelvis_tilt	pelvis_list	pelvis_rotation	pelvis_tx	pelvis_ty	pelvis_tz	hip_flexion_r	hip_adduction_r	hip_rotation_r	knee_angle_r	ankle_angle_r	subtalar_angle_r	mtp_angle_r	hip_flexion_l	hip_adduction_l	hip_rotation_l	knee_angle_l	ankle_angle_l	subtalar_angle_l	mtp_angle_l	lumbar_extension	lumbar_bending	lumbar_rotation
      2.53000000	     62.63696032	      0.31923161	     -0.80748957	      0.65239629	      1.01667273	     -0.21000212	      0.31532700	     -2.18563174	      3.77350754	    -43.44250335	    -20.02543032	     26.17173920	     87.98566799	     -7.17499669	    -10.65412314	      1.22784909	    -53.29799382	    -13.02873568	     32.61400058	     28.88154431	      0.00000000	      0.00000000	      0.00000000
      2.54000000	     62.64383139	      0.34859996	     -0.80594491	      0.65242967	      1.01670164	     -0.21013042	      0.27581898	     -2.25550838	      3.73224293	    -43.79501893	    -19.89884418	     26.43691626	     88.23143716	     -7.19132032	    -10.62598703	      1.23486073	    -53.28554357	    -13.02859760	     32.62026758	     28.86318226	      0.00000000	      0.00000000	      0.00000000
      2.55000000	     62.64178903	      0.36055565	     -0.80720278	      0.65247196	      1.01670913	     -0.21019126	      0.22894001	     -2.36748128	      3.70199384	    -44.19001625	    -19.79960935	     26.62652158	     88.51027542	     -7.20628012	    -10.60869908	      1.24322546	    -53.26335506	    -13.02552438	     32.61594706	     28.83160864	      0.00000000	      0.00000000	      0.00000000
      2.56000000	     62.63106728	      0.35957461	     -0.80602852	      0.65249998	      1.01670055	     -0.21012905	      0.18057407	     -2.49397455	      3.68975366	    -44.62416616	    -19.73504608	     26.71447449	     88.81661990	     -7.21495508	    -10.60221240	      1.25406800	    -53.23893144	    -13.01951322	     32.60023676	     28.78579262	      0.00000000	      0.00000000	      0.00000000
      2.57000000	     62.61715921	      0.35943190	     -0.79740298	      0.65252156	      1.01671284	     -0.21007544	      0.13655050	     -2.59931592	      3.70132966	    -45.09260309	    -19.71127412	     26.68238582	     89.14633741	     -7.21300803	    -10.60372735	      1.26755988	    -53.22550981	    -13.01094000	     32.57353521	     28.72689083	      0.00000000	      0.00000000	      0.00000000
      2.58000000	     62.60647538	      0.36866032	     -0.77939899	      0.65256043	      1.01674694	     -0.21014653	      0.09797361	     -2.66433197	      3.73977998	    -45.59191240	    -19.73196012	     26.52397035	     89.49712291	     -7.19657335	    -10.61223087	      1.28320652	    -53.23940383	    -13.00052466	     32.53751982	     28.65853735	      0.00000000	      0.00000000	      0.00000000
      2.59000000	     62.60208971	      0.37929069	     -0.75442505	      0.65260372	      1.01673727	     -0.21023428	      0.05819408	     -2.70215326	      3.80477575	    -46.12264645	    -19.79737557	     26.24682205	     89.86860334	     -7.16264081	    -10.63015551	      1.29991164	    -53.29454888	    -12.98925545	     32.49519821	     28.58667306	      0.00000000	      0.00000000	      0.00000000
      2.60000000	     62.60454977	      0.37642275	     -0.72864829	      0.65261753	      1.01664717	     -0.21021925	      0.00670166	     -2.74513311	      3.89228510	    -46.68782015	    -19.90415873	     25.87090392	     90.26203515	     -7.11078424	    -10.65976422	      1.31574043	    -53.39550848	    -12.97829435	     32.45092490	     28.51886200	      0.00000000	      0.00000000	      0.00000000
      2.61000000	     62.61454032	      0.35371663	     -0.70878736	      0.65262637	      1.01654175	     -0.21013618	     -0.06335413	     -2.82092801	      3.99608466	    -47.28878930	    -20.04588287	     25.42429474	     90.67958650	     -7.04607615	    -10.69813859	      1.32826700	    -53.53155537	    -12.96887237	     32.41020500	     28.46315622	      0.00000000	      0.00000000	      0.00000000
      2.62000000	     62.63259174	      0.31744470	     -0.69790667	      0.65271146	      1.01653975	     -0.21004294	     -0.15011221	     -2.94140912	      4.11137975	    -47.92213516	    -20.21406126	     24.93765918	     91.12336321	     -6.98183304	    -10.73663777	      1.33613573	    -53.67528338	    -12.96218181	     32.37905907	     28.42669265	      0.00000000	      0.00000000	      0.00000000
      2.63000000	     62.65610805	      0.28173529	     -0.69405118	      0.65287946	      1.01667091	     -0.20996305	     -0.24359532	     -3.10523215	      4.23801672	    -48.57953048	    -20.39916753	     24.43909805	     91.59441617	     -6.93945294	    -10.76586923	      1.34092931	    -53.78846218	    -12.95928399	     32.36292019	     28.41430855	      0.00000000	      0.00000000	      0.00000000
      2.64000000	     62.67859559	      0.26073206	     -0.69288002	      0.65298701	      1.01678220	     -0.20995334	     -0.33197680	     -3.30520184	      4.38099500	    -49.25067087	    -20.59151869	     23.95052905	     92.09193054	     -6.94154298	    -10.78084777	      1.34723556	    -53.83474775	    -12.96102069	     32.36533678	     28.42750451	      0.00000000	      0.00000000	      0.00000000
      2.65000000	     62.69606284	      0.26056595	     -0.69163389	      0.65293193	      1.01673765	     -0.21005014	     -0.40893421	     -3.53318393	      4.54807310	    -49.92729878	    -20.78200932	     23.48595937	     92.61272548	     -6.99836896	    -10.78080264	      1.35978466	    -53.79446049	    -12.96784022	     32.38693148	     28.46402890	      0.00000000	      0.00000000	      0.00000000
      2.66000000	     62.71233842	      0.27661578	     -0.69043139	      0.65281709	      1.01663999	     -0.21017336	     -0.47630313	     -3.78103793	      4.74601492	    -50.60574751	    -20.96270342	     23.05137568	     93.15112679	     -7.09991193	    -10.76637756	      1.37987958	    -53.67395432	    -12.97946801	     32.42500474	     28.51818903	      0.00000000	      0.00000000	      0.00000000
      2.67000000	     62.73360808	      0.29915805	     -0.69026121	      0.65277229	      1.01665605	     -0.21022625	     -0.54053036	     -4.04008260	      4.97749555	    -51.28690611	    -21.12733672	     22.64570519	     93.69923040	     -7.22334730	    -10.73998411	      1.40467651	    -53.50371094	    -12.99456880	     32.47391678	     28.58175135	      0.00000000	      0.00000000	      0.00000000
      2.68000000	     62.76113819	      0.32028784	     -0.69108610	      0.65279562	      1.01678765	     -0.21021438	     -0.60662876	     -4.30131535	      5.24000336	    -51.97440482	    -21.27184124	     22.26234738	     94.24753914	     -7.34532876	    -10.70729166	      1.42957649	    -53.32586334	    -13.01072078	     32.52611257	     28.64518111	      0.00000000	      0.00000000	      0.00000000
      2.69000000	     62.79086094	      0.33571398	     -0.69177961	      0.65282558	      1.01692541	     -0.21020035	     -0.67435825	     -4.55671299	      5.52694245	    -52.67236788	    -21.39492523	     21.89093384	     94.78589902	     -7.44782757	    -10.67609727	      1.45118177	    -53.17898848	    -13.02487353	     32.57351871	     28.69906276	      0.00000000	      0.00000000	      0.00000000
      2.70000000	     62.81693120	      0.34321970	     -0.69065943	      0.65282993	      1.01699225	     -0.21021658	     -0.73800898	     -4.80077159	      5.83018524	    -53.38315738	    -21.49859179	     21.51914588	     95.30457391	     -7.51893443	    -10.65360540	      1.46880233	    -53.08841463	    -13.03414900	     32.60901232	     28.73557929	      0.00000000	      0.00000000	      0.00000000
      2.71000000	     62.83558950	      0.34142882	     -0.68591994	      0.65282389	      1.01699477	     -0.21025033	     -0.78861839	     -5.03120271	      6.14265269	    -54.10524330	    -21.58837444	     21.13454228	     95.79523818	     -7.55227464	    -10.64428625	      1.48405893	    -53.06460437	    -13.03665127	     32.62769230	     28.74984551	      0.00000000	      0.00000000	      0.00000000
      2.72000000	     62.84662103	      0.32992510	     -0.67656478	      0.65283433	      1.01697353	     -0.21028487	     -0.81834827	     -5.24838992	      6.45944193	    -54.83248394	    -21.67299103	     20.72630204	     96.25170547	     -7.54622914	    -10.64896138	      1.49921812	    -53.10668503	    -13.03196323	     32.62775570	     28.74082696	      0.00000000	      0.00000000	      0.00000000
      2.73000000	     62.85177947	      0.30967861	     -0.66375224	      0.65285221	      1.01692867	     -0.21032684	     -0.82579806	     -5.45411157	      6.77718360	    -55.55559032	    -21.76319649	     20.28669691	     96.67031003	     -7.50312420	    -10.66467994	      1.51538078	    -53.20629691	    -13.02117327	     32.61085373	     28.71159417	      0.00000000	      0.00000000	      0.00000000
      2.74000000	     62.85325632	      0.28299198	     -0.65084546	      0.65284880	      1.01682907	     -0.21038784	     -0.81768340	     -5.65036161	      7.09285403	    -56.26416125	    -21.86987467	     19.81212677	     97.04995110	     -7.42910092	    -10.68524641	      1.53164333	    -53.34866755	    -13.00648242	     32.58185671	     28.66878497	      0.00000000	      0.00000000	      0.00000000
